<?xml version="1.0" encoding="UTF-8" standalone="no"?>
<!-- Created with Inkscape (http://www.inkscape.org/) -->

<svg
   xmlns:dc="http://purl.org/dc/elements/1.1/"
   xmlns:cc="http://creativecommons.org/ns#"
   xmlns:rdf="http://www.w3.org/1999/02/22-rdf-syntax-ns#"
   xmlns:svg="http://www.w3.org/2000/svg"
   xmlns="http://www.w3.org/2000/svg"
   version="1.1"
   width="105.04688"
   height="62.578121"
   id="svg4037">
  <defs
     id="defs4039" />
  <metadata
     id="metadata4042">
    <rdf:RDF>
      <cc:Work
         rdf:about="">
        <dc:format>image/svg+xml</dc:format>
        <dc:type
           rdf:resource="http://purl.org/dc/dcmitype/StillImage" />
        <dc:title></dc:title>
      </cc:Work>
    </rdf:RDF>
  </metadata>
  <g
     transform="translate(-337.73773,-275.38898)"
     id="layer1">
    <g
       id="text4081"
       style="font-size:144px;font-style:normal;font-variant:normal;font-weight:normal;font-stretch:normal;text-align:start;line-height:125%;letter-spacing:0px;word-spacing:0px;text-anchor:start;fill:#93a1a1;fill-opacity:1;stroke:none;font-family:Lato;-inkscape-font-specification:Lato">
      <path
         d="m 427.45648,275.38898 c 5.20302,0.23445 8.27333,3.04695 9.21094,8.4375 -1.1e-4,4.07819 -1.73448,6.70319 -5.20313,7.875 -8.25009,1.68756 -12.84384,3.56256 -13.78125,5.625 11.9999,1.26568 19.28896,8.27349 21.86719,21.02343 l 1.89844,0 1.33594,5.20313 -3.23438,0.91406 -0.21094,0 c -0.79698,8.15628 -4.75792,12.44534 -11.88281,12.86719 -4.59385,2e-5 -7.47665,-2.17967 -8.64844,-6.53906 -9e-5,-3.93747 0.46866,-5.90622 1.40625,-5.90625 0.74991,2.1094 2.46084,3.16409 5.13282,3.16406 0.0937,3e-5 0.16396,3e-5 0.21093,0 3.60928,3e-5 5.71865,-1.80466 6.32813,-5.41406 -12.28134,-3.60934 -18.58603,-11.06246 -18.91406,-22.35938 l -0.21094,0 c -6.14071,6e-5 -10.80476,2.55474 -13.99219,7.66406 6.28117,3.00005 9.42179,6.86724 9.42188,11.60157 -0.42196,11.53127 -8.46101,17.67189 -24.11719,18.42187 -28.82816,-0.1406 -44.27345,-8.55466 -46.33594,-25.24219 -10e-6,-2.7187 1.54686,-4.28901 4.64063,-4.71093 2.3906,0.14067 3.77341,1.24223 4.14843,3.30468 l 0,1.61719 -0.91406,2.74219 c -2e-5,4.21879 2.64842,6.60941 7.94531,7.17187 4.17185,4e-5 6.56247,-1.80465 7.17188,-5.41406 2.48434,-22.40618 10.71089,-34.07805 24.67969,-35.01562 9.18743,0.28132 13.78117,4.17194 13.78125,11.67187 l 0,0.5625 c -8e-5,1.82819 -0.98445,5.06256 -2.95313,9.70313 4.3593,-3.60932 8.88274,-5.88276 13.57031,-6.82032 2.85929,7e-5 4.28898,-0.89056 4.28907,-2.67187 3.37491,-3.93743 6.89053,-6.86712 10.54687,-8.78906 2.67178,-1.68743 4.00771,-3.37493 4.00781,-5.0625 -1e-4,-0.6093 -0.44541,-1.61711 -1.33593,-3.02344 -0.84385,-1.40617 -0.79698,-2.27336 0.14062,-2.60156 m -10.89844,24.89062 c -0.047,0.37506 -0.0704,0.7735 -0.0703,1.19531 -9e-5,6.18755 5.36709,10.99224 16.10156,14.41407 l 0,-0.21094 c -1.5001,-8.48432 -6.84385,-13.61713 -16.03125,-15.39844"
         id="path4086"
         style="fill:#93a1a1;fill-opacity:1;-inkscape-font-specification:Lato" />
    </g>
  </g>
</svg>
