<?xml version="1.0" encoding="UTF-8" standalone="no"?>
<!-- Created with Inkscape (http://www.inkscape.org/) -->

<svg
   xmlns:dc="http://purl.org/dc/elements/1.1/"
   xmlns:cc="http://creativecommons.org/ns#"
   xmlns:rdf="http://www.w3.org/1999/02/22-rdf-syntax-ns#"
   xmlns:svg="http://www.w3.org/2000/svg"
   xmlns="http://www.w3.org/2000/svg"
   version="1.1"
   width="87.1875"
   height="105.39844"
   id="svg4448">
  <defs
     id="defs4450" />
  <metadata
     id="metadata4453">
    <rdf:RDF>
      <cc:Work
         rdf:about="">
        <dc:format>image/svg+xml</dc:format>
        <dc:type
           rdf:resource="http://purl.org/dc/dcmitype/StillImage" />
        <dc:title></dc:title>
      </cc:Work>
    </rdf:RDF>
  </metadata>
  <g
     transform="translate(-403.73996,-435.53516)"
     id="layer1">
    <g
       id="text4456"
       style="font-size:144px;font-style:normal;font-variant:normal;font-weight:normal;font-stretch:normal;text-align:start;line-height:125%;letter-spacing:0px;word-spacing:0px;text-anchor:start;fill:#657b83;fill-opacity:1;stroke:none;font-family:Lato;-inkscape-font-specification:Lato">
      <path
         d="m 436.78683,451.98828 c -1.17192,2.10946 -1.75786,4.33602 -1.75781,6.67969 -5e-5,2.34383 0.58589,4.57039 1.75781,6.67969 1.17182,2.06257 2.81245,3.67976 4.92188,4.85156 2.15619,1.17194 4.35931,1.75788 6.60937,1.75781 2.34369,7e-5 4.57025,-0.58587 6.67969,-1.75781 2.15618,-1.1718 3.82024,-2.78899 4.99219,-4.85156 1.1718,-2.1093 1.75773,-4.33586 1.75781,-6.67969 -8e-5,-2.34367 -0.60945,-4.57023 -1.82812,-6.67969 -1.21883,-2.15616 -2.88289,-3.79678 -4.99219,-4.92187 -2.10945,-1.12491 -4.31257,-1.68741 -6.60938,-1.6875 -2.20318,9e-5 -4.38287,0.56259 -6.53906,1.6875 -2.10943,1.12509 -3.77349,2.76571 -4.99219,4.92187 m 14.97657,29.60156 0,10.96875 0.42187,0 0.21094,0 c 7.03117,5e-5 13.17179,-2.22651 18.42187,-6.67968 5.29679,-4.49994 11.9999,-7.64057 20.10938,-9.42188 -1.1e-4,10.82818 -5.53135,18.04692 -16.59375,21.65625 -11.01571,3.60942 -17.43757,8.95316 -19.26563,16.03125 -2.48444,6.37502 -3.7735,15.3047 -3.86718,26.78906 l -2.95313,0 c -2.01569,-7.87499 -3.0235,-15.42186 -3.02344,-22.64062 l 0,-1.40625 c -0.23443,-6.18747 -6.18755,-10.94528 -17.85937,-14.27344 -11.62503,-3.37496 -19.50003,-12.21089 -23.625,-26.50781 9.32809,0.0938 16.73434,2.88287 22.21875,8.36719 5.5312,5.43755 11.32026,8.15629 17.36719,8.15625 0.60931,4e-5 1.24212,-0.0234 1.89843,-0.0703 l 0.42188,0 0,-10.89843 c -3.04694,-0.32807 -5.97662,-1.31244 -8.78906,-2.95313 -3.6563,-2.01556 -6.51568,-4.85149 -8.57813,-8.50781 -2.01567,-3.65618 -3.02348,-7.49992 -3.02344,-11.53125 -4e-5,-4.03116 1.03121,-7.89835 3.09375,-11.60156 2.06246,-3.70303 4.92183,-6.53897 8.57813,-8.50782 3.70307,-2.01552 7.49994,-3.02333 11.39062,-3.02343 3.89056,10e-5 7.68743,1.00791 11.39063,3.02343 3.70304,1.96885 6.60929,4.80479 8.71875,8.50782 2.10929,3.70321 3.16397,7.5704 3.16406,11.60156 -9e-5,4.03133 -1.03134,7.87507 -3.09375,11.53125 -2.06258,3.65632 -4.92195,6.49225 -8.57812,8.50781 -2.67195,1.50006 -5.3907,2.461 -8.15625,2.88281"
         id="path3156" />
    </g>
  </g>
</svg>
