<?xml version="1.0" encoding="UTF-8" standalone="no"?>
<!-- Created with Inkscape (http://www.inkscape.org/) -->

<svg
   xmlns:dc="http://purl.org/dc/elements/1.1/"
   xmlns:cc="http://creativecommons.org/ns#"
   xmlns:rdf="http://www.w3.org/1999/02/22-rdf-syntax-ns#"
   xmlns:svg="http://www.w3.org/2000/svg"
   xmlns="http://www.w3.org/2000/svg"
   xmlns:sodipodi="http://sodipodi.sourceforge.net/DTD/sodipodi-0.dtd"
   xmlns:inkscape="http://www.inkscape.org/namespaces/inkscape"
   version="1.1"
   width="621.29535"
   height="65.077827"
   id="svg3883"
   inkscape:version="0.48.4 r9939"
   sodipodi:docname="separator.svg">
  <sodipodi:namedview
     pagecolor="#ffffff"
     bordercolor="#666666"
     borderopacity="1"
     objecttolerance="10"
     gridtolerance="10"
     guidetolerance="10"
     inkscape:pageopacity="0"
     inkscape:pageshadow="2"
     inkscape:window-width="1916"
     inkscape:window-height="1057"
     id="namedview3053"
     showgrid="false"
     inkscape:zoom="2.25"
     inkscape:cx="326.22098"
     inkscape:cy="33.693501"
     inkscape:window-x="0"
     inkscape:window-y="19"
     inkscape:window-maximized="0"
     inkscape:current-layer="svg3883"
     inkscape:showpageshadow="false" />
  <title
     id="title3885">Big Black Divider</title>
  <defs
     id="defs3898">
    <filter
       id="filter3998"
       inkscape:label="Cutout"
       x="0"
       y="0"
       width="1"
       height="1"
       inkscape:menu="Shadows and Glows"
       inkscape:menu-tooltip="Drop shadow under the cut-out of the shape"
       color-interpolation-filters="sRGB">
      <feGaussianBlur
         id="feGaussianBlur4000"
         in="SourceAlpha"
         stdDeviation="4.2" />
      <feOffset
         id="feOffset4002"
         dy="5"
         dx="5"
         result="result91" />
      <feComposite
         id="feComposite4004"
         in2="result91"
         operator="out"
         in="SourceGraphic" />
    </filter>
  </defs>
  <metadata
     id="metadata15">image/svg+xml<rdf:RDF>
  <cc:Work
     rdf:about="">
    <dc:format>image/svg+xml</dc:format>
    <dc:type
       rdf:resource="http://purl.org/dc/dcmitype/StillImage" />
    <dc:title>Big Black Divider</dc:title>
  </cc:Work>
</rdf:RDF>
</metadata>
  <g
     id="g3991"
     style="filter:url(#filter3998)">
    <path
       style="fill:#93a1a1;fill-opacity:1;fill-rule:evenodd;stroke-width:1px"
       id="path2383"
       d="m 128.92459,35.79129 c 5.34721,-7.56743 3.67273,-18.67903 -0.89786,-21.88477 -8.06312,-5.85628 -16.87627,6.36629 -12.83714,18.52696 4.03111,12.51732 14.12214,21.26775 27.85974,23.76992 29.80334,5.26556 88.75392,-27.17806 126.13977,-37.10584 27.77255,-7.37498 44.73773,3.70697 53.89194,15.98065 -18.81464,-13.32713 -35.96277,-8.69195 -53.61063,-5.4198 -40.49223,7.50779 -82.37617,39.38407 -126.75807,34.37011 -20.7208,-3.09549 -35.23915,-23.67115 -34.04528,-39.80535 0.10605,-1.43376 0.33619,-2.83249 0.69713,-4.1808 2.72757,-9.56168 7.51999,-13.48331 11.76553,-14.64645 11.54058,-3.1619 22.97279,17.87191 7.79487,30.39537 z" />
    <path
       style="fill:#93a1a1;fill-opacity:1;fill-rule:evenodd;stroke-width:1px"
       id="path2390"
       d="M 119.74623,42.62521 C 111.53287,35.33624 103.05942,24.0229 95.499064,19.01843 16.011866,-33.59677 -24.727094,37.48579 16.034247,57.91327 c 6.289549,3.15208 19.323479,5.04418 28.661079,-7.50635 -11.425961,8.71312 -24.1045,5.72146 -29.34193,1.21634 C 1.4110756,39.63061 6.3003856,22.61392 22.696637,14.84228 c 25.825468,-9.86099 49.151747,0.6882 69.563787,15.31662 14.578666,8.73599 18.320066,12.81285 30.067016,18.15094 -6.67383,0.27722 -3.16781,-8.49396 -9.51852,-12.61001 l 6.93732,6.92538 -1e-5,0 z" />
    <path
       style="fill:#93a1a1;fill-opacity:1;fill-rule:evenodd;stroke-width:1px"
       id="path2479"
       d="m 485.61919,33.50668 c -5.67127,7.63101 -3.89527,18.8363 0.95227,22.06903 8.55175,5.90563 17.89917,-6.41998 13.61523,-18.68297 -4.27527,-12.62275 -14.97809,-21.44687 -29.54831,-23.96998 -31.60989,-5.31 -94.13333,27.40681 -133.78531,37.41824 -29.45575,7.43704 -47.44922,-3.73822 -57.1582,-16.11526 19.95495,13.43937 38.14233,8.76516 56.8598,5.46545 42.94666,-7.571 87.3692,-39.71573 134.4411,-34.65955 21.97669,3.12156 37.375,23.8705 36.10883,40.14055 -0.11249,1.44594 -0.35663,2.85634 -0.73944,4.21602 -2.89289,9.6422 -7.97577,13.59676 -12.47864,14.76979 -12.24005,3.18851 -24.36514,-18.0224 -8.26734,-30.65132 z" />
    <path
       style="fill:#93a1a1;fill-opacity:1;fill-rule:evenodd;stroke-width:1px"
       id="path2481"
       d="m 495.64665,22.78967 c 8.61816,7.23134 17.50928,18.45522 25.44238,23.42012 83.40522,52.19913 126.15223,-18.32134 83.38172,-38.5874 -6.59961,-3.12702 -20.276,-5.00405 -30.07385,7.44713 11.98919,-8.64423 25.29266,-5.67623 30.78826,-1.20673 14.62958,11.89781 9.49921,28.77994 -7.70489,36.49011 -27.09876,9.78299 -51.57483,-0.68277 -72.99304,-15.19551 -15.29749,-8.6669 -19.22327,-12.7115 -31.54908,-18.0074 7.00281,-0.27502 3.32398,8.42679 9.9878,12.51031 l -7.2793,-6.87063 z" />
    <rect
       y="-21.400032"
       x="-10.715342"
       height="108.55731"
       width="643.76337"
       id="rect3973"
       style="fill:none;stroke:none" />
  </g>
</svg>
